<?xml version="1.0" encoding="utf-8"?>
<svg xmlns="http://www.w3.org/2000/svg" xmlns:xlink="http://www.w3.org/1999/xlink" style="margin: auto; background: rgb(241, 242, 243); display: block; z-index: 1; position: relative; shape-rendering: auto;" width="3000" height="2000" preserveAspectRatio="xMidYMid" viewBox="0 0 3000 2000">
<g transform="translate(1500,1000) scale(1,1) translate(-1500,-1000)"><path id="path0" d="M 683.5021817796143 550.2061122753371
c 0 33.2799426527713 -8.142964691635528 9.559132464093883 -17.702097155729412 9.559132464093883
S 648.0979874681553 583.4860549281084 648.0979874681553 550.2061122753371
s 8.142964691635528 -9.559132464093883 17.702097155729412 -9.559132464093883
S 683.5021817796143 516.9261696225658 683.5021817796143 550.2061122753371
z" fill="none" stroke="none"></path>
<circle cx="0" cy="0" r="5.42350508632027" fill="#000000" opacity="0.9">
  <animateMotion begin="-6.040648016344871s" dur="11.19s" repeatCount="indefinite">
    <mpath xlink:href="#path0"></mpath>
  </animateMotion>
</circle><path id="path1" d="M 1287.8752525198345 225.80445220411318
c 0 28.498635060961053 -6.973070280873449 8.185778155807963 -15.158848436681412 8.185778155807963
S 1257.5575556464717 254.30308726507423 1257.5575556464717 225.80445220411318
s 6.973070280873449 -8.185778155807963 15.158848436681412 -8.185778155807963
S 1287.8752525198345 197.30581714315213 1287.8752525198345 225.80445220411318
z" fill="none" stroke="none"></path>
<circle cx="0" cy="0" r="8.375894779791158" fill="#000000" opacity="0.9">
  <animateMotion begin="-9.76585875030799s" dur="11.19s" repeatCount="indefinite">
    <mpath xlink:href="#path1"></mpath>
  </animateMotion>
</circle><path id="path2" d="M 1723.7239030401058 850.7244071591826
c 0 29.044730620670386 -7.106689407185306 8.342635391043622 -15.449324798228927 8.342635391043622
S 1692.825253443648 879.769137779853 1692.825253443648 850.7244071591826
s 7.106689407185306 -8.342635391043622 15.449324798228927 -8.342635391043622
S 1723.7239030401058 821.6796765385122 1723.7239030401058 850.7244071591826
z" fill="none" stroke="none"></path>
<circle cx="0" cy="0" r="8.057527860818915" fill="#aeaeae" opacity="0.9">
  <animateMotion begin="-4.7150407045568254s" dur="11.19s" repeatCount="indefinite">
    <mpath xlink:href="#path2"></mpath>
  </animateMotion>
</circle><path id="path3" d="M 1706.3617282182151 381.9282026290587
c 0 28.89840471128235 -7.070886259143553 8.300605608559824 -15.371491867703376 8.300605608559824
S 1675.6187444828086 410.82660734034107 1675.6187444828086 381.9282026290587
s 7.070886259143553 -8.300605608559824 15.371491867703376 -8.300605608559824
S 1706.3617282182151 353.02979791777636 1706.3617282182151 381.9282026290587
z" fill="none" stroke="none"></path>
<circle cx="0" cy="0" r="5.3074290342169315" fill="#7b7b7b" opacity="0.9">
  <animateMotion begin="-4.276284997545075s" dur="11.19s" repeatCount="indefinite">
    <mpath xlink:href="#path3"></mpath>
  </animateMotion>
</circle><path id="path4" d="M 2480.855612772684 1696.5624992190196
c 0 26.052015296279563 -6.374429274621595 7.48302567020796 -13.857454944829556 7.48302567020796
S 2453.140702883025 1722.614514515299 2453.140702883025 1696.5624992190196
s 6.374429274621595 -7.48302567020796 13.857454944829556 -7.48302567020796
S 2480.855612772684 1670.5104839227401 2480.855612772684 1696.5624992190196
z" fill="none" stroke="none"></path>
<circle cx="0" cy="0" r="5.991029423932322" fill="#000000" opacity="0.9">
  <animateMotion begin="-7.473413331638624s" dur="11.19s" repeatCount="indefinite">
    <mpath xlink:href="#path4"></mpath>
  </animateMotion>
</circle><path id="path5" d="M 513.2840374168674 1153.1816421705912
c 0 33.79228706195952 -8.2683255577135 9.706295219924543 -17.97462077763804 9.706295219924543
S 477.33479586159126 1186.9739292325507 477.33479586159126 1153.1816421705912
s 8.2683255577135 -9.706295219924543 17.97462077763804 -9.706295219924543
S 513.2840374168674 1119.3893551086317 513.2840374168674 1153.1816421705912
z" fill="none" stroke="none"></path>
<circle cx="0" cy="0" r="8.315390448213472" fill="#aeaeae" opacity="0.9">
  <animateMotion begin="-4.4968860186124475s" dur="11.19s" repeatCount="indefinite">
    <mpath xlink:href="#path5"></mpath>
  </animateMotion>
</circle><path id="path6" d="M 699.6886733579581 906.4770616785446
c 0 29.713691734508245 -7.270371381847761 8.534783796082156 -15.805155177929917 8.534783796082156
S 668.0783630020983 936.1907534130528 668.0783630020983 906.4770616785446
s 7.270371381847761 -8.534783796082156 15.805155177929917 -8.534783796082156
S 699.6886733579581 876.7633699440364 699.6886733579581 906.4770616785446
z" fill="none" stroke="none"></path>
<circle cx="0" cy="0" r="7.917787127257479" fill="#000000" opacity="0.9">
  <animateMotion begin="-5.451607165958358s" dur="11.19s" repeatCount="indefinite">
    <mpath xlink:href="#path6"></mpath>
  </animateMotion>
</circle><path id="path7" d="M 2869.5308766691332 599.2859375114889
c 0 37.211253310473225 -9.104881129158342 10.688338716838055 -19.793219845996397 10.688338716838055
S 2829.944436977141 636.4971908219621 2829.944436977141 599.2859375114889
s 9.104881129158342 -10.688338716838055 19.793219845996397 -10.688338716838055
S 2869.5308766691332 562.0746842010157 2869.5308766691332 599.2859375114889
z" fill="none" stroke="none"></path>
<circle cx="0" cy="0" r="7.54811490892874" fill="#aeaeae" opacity="0.9">
  <animateMotion begin="-5.026958466811209s" dur="11.19s" repeatCount="indefinite">
    <mpath xlink:href="#path7"></mpath>
  </animateMotion>
</circle><path id="path8" d="M 2005.534331623991 68.00998689822931
c 0 26.699386285722824 -6.532828559272605 7.668972656537408 -14.201801215810013 7.668972656537408
S 1977.1307291923708 94.70937318395214 1977.1307291923708 68.00998689822931
s 6.532828559272605 -7.668972656537408 14.201801215810013 -7.668972656537408
S 2005.534331623991 41.31060061250649 2005.534331623991 68.00998689822931
z" fill="none" stroke="none"></path>
<circle cx="0" cy="0" r="8.600966306403665" fill="#000000" opacity="0.9">
  <animateMotion begin="-9.733213437954525s" dur="11.19s" repeatCount="indefinite">
    <mpath xlink:href="#path8"></mpath>
  </animateMotion>
</circle><path id="path9" d="M 917.9971717061163 1689.5389580022838
c 0 37.10320208676648 -9.078443063783286 10.657302727049947 -19.73574579083323 10.657302727049947
S 878.5256801244499 1726.6421600890503 878.5256801244499 1689.5389580022838
s 9.078443063783286 -10.657302727049947 19.73574579083323 -10.657302727049947
S 917.9971717061163 1652.4357559155173 917.9971717061163 1689.5389580022838
z" fill="none" stroke="none"></path>
<circle cx="0" cy="0" r="8.511889664280881" fill="#7b7b7b" opacity="0.9">
  <animateMotion begin="-3.0418164154822547s" dur="11.19s" repeatCount="indefinite">
    <mpath xlink:href="#path9"></mpath>
  </animateMotion>
</circle><path id="path10" d="M 68.01831986566228 946.960165963609
c 0 28.021189305660755 -6.856248447129758 8.048639481413195 -14.904887928542953 8.048639481413195
S 38.208544008576375 974.9813552692698 38.208544008576375 946.960165963609
s 6.856248447129758 -8.048639481413195 14.904887928542953 -8.048639481413195
S 68.01831986566228 918.9389766579483 68.01831986566228 946.960165963609
z" fill="none" stroke="none"></path>
<circle cx="0" cy="0" r="6.676024168851562" fill="#000000" opacity="0.9">
  <animateMotion begin="-6.886200958082978s" dur="11.19s" repeatCount="indefinite">
    <mpath xlink:href="#path10"></mpath>
  </animateMotion>
</circle><path id="path11" d="M 1390.671214360645 1171.068832997362
c 0 30.764186259805527 -7.527407276335394 8.83652158526329 -16.363928861598684 8.83652158526329
S 1357.9433566374478 1201.8330192571675 1357.9433566374478 1171.068832997362
s 7.527407276335394 -8.83652158526329 16.363928861598684 -8.83652158526329
S 1390.671214360645 1140.3046467375566 1390.671214360645 1171.068832997362
z" fill="none" stroke="none"></path>
<circle cx="0" cy="0" r="5.524839499358839" fill="#000000" opacity="0.9">
  <animateMotion begin="-8.584665156481751s" dur="11.19s" repeatCount="indefinite">
    <mpath xlink:href="#path11"></mpath>
  </animateMotion>
</circle><path id="path12" d="M 121.25799065587205 1363.1585606786327
c 0 34.33021689269673 -8.399946686510901 9.860806979817147 -18.26075366632805 9.860806979817147
S 84.73648332321594 1397.4887775713294 84.73648332321594 1363.1585606786327
s 8.399946686510901 -9.860806979817147 18.26075366632805 -9.860806979817147
S 121.25799065587205 1328.828343785936 121.25799065587205 1363.1585606786327
z" fill="none" stroke="none"></path>
<circle cx="0" cy="0" r="8.84501627275136" fill="#000000" opacity="0.9">
  <animateMotion begin="-10.935979797647041s" dur="11.19s" repeatCount="indefinite">
    <mpath xlink:href="#path12"></mpath>
  </animateMotion>
</circle><path id="path13" d="M 2121.901851799963 424.02891608372374
c 0 31.336781829886267 -7.667510447738128 9.00099052560563 -16.668500973343757 9.00099052560563
S 2088.5648498532755 455.36569791361 2088.5648498532755 424.02891608372374
s 7.667510447738128 -9.00099052560563 16.668500973343757 -9.00099052560563
S 2121.901851799963 392.6921342538375 2121.901851799963 424.02891608372374
z" fill="none" stroke="none"></path>
<circle cx="0" cy="0" r="8.282346429188223" fill="#aeaeae" opacity="0.9">
  <animateMotion begin="-4.935578207424638s" dur="11.19s" repeatCount="indefinite">
    <mpath xlink:href="#path13"></mpath>
  </animateMotion>
</circle><path id="path14" d="M 2586.895752573032 1536.1931970801206
c 0 32.7877259030321 -8.02252867840147 9.4177510572539 -17.44027973565537 9.4177510572539
S 2552.0151931017217 1568.9809229831528 2552.0151931017217 1536.1931970801206
s 8.02252867840147 -9.4177510572539 17.44027973565537 -9.4177510572539
S 2586.895752573032 1503.4054711770884 2586.895752573032 1536.1931970801206
z" fill="none" stroke="none"></path>
<circle cx="0" cy="0" r="6.606048726932567" fill="#000000" opacity="0.9">
  <animateMotion begin="-3.1245312985045692s" dur="11.19s" repeatCount="indefinite">
    <mpath xlink:href="#path14"></mpath>
  </animateMotion>
</circle><path id="path15" d="M 1336.0163383042532 1680.1110075289328
c 0 24.179715777965853 -5.916313435034197 6.945237510692319 -12.861550945726517 6.945237510692319
S 1310.2932364128 1704.2907233068986 1310.2932364128 1680.1110075289328
s 5.916313435034197 -6.945237510692319 12.861550945726517 -6.945237510692319
S 1336.0163383042532 1655.931291750967 1336.0163383042532 1680.1110075289328
z" fill="none" stroke="none"></path>
<circle cx="0" cy="0" r="5.377218680673579" fill="#000000" opacity="0.9">
  <animateMotion begin="-3.4180977370796537s" dur="11.19s" repeatCount="indefinite">
    <mpath xlink:href="#path15"></mpath>
  </animateMotion>
</circle><path id="path16" d="M 2557.0151150298166 1757.9498874538615
c 0 24.721536694901225 -6.048886638114128 7.100866923003544 -13.149753561117672 7.100866923003544
S 2530.7156079075817 1782.6714241487628 2530.7156079075817 1757.9498874538615
s 6.048886638114128 -7.100866923003544 13.149753561117672 -7.100866923003544
S 2557.0151150298166 1733.2283507589602 2557.0151150298166 1757.9498874538615
z" fill="none" stroke="none"></path>
<circle cx="0" cy="0" r="6.064102492033107" fill="#bbbbbb" opacity="0.9">
  <animateMotion begin="-3.868065326274785s" dur="11.19s" repeatCount="indefinite">
    <mpath xlink:href="#path16"></mpath>
  </animateMotion>
</circle><path id="path17" d="M 225.14220379083338 866.6726749793454
c 0 22.948325223297136 -5.615015746125894 6.591540223713007 -12.206555969838902 6.591540223713007
S 200.7290918511556 889.6210002026426 200.7290918511556 866.6726749793454
s 5.615015746125894 -6.591540223713007 12.206555969838902 -6.591540223713007
S 225.14220379083338 843.7243497560482 225.14220379083338 866.6726749793454
z" fill="none" stroke="none"></path>
<circle cx="0" cy="0" r="4.974070003468408" fill="#aeaeae" opacity="0.9">
  <animateMotion begin="-3.390742824926839s" dur="11.19s" repeatCount="indefinite">
    <mpath xlink:href="#path17"></mpath>
  </animateMotion>
</circle><path id="path18" d="M 1669.3483452586895 1268.9020029228668
c 0 29.572584910938335 -7.235845244165762 8.494253112716331 -15.730098356882092 8.494253112716331
S 1637.8881485449253 1298.4745878338051 1637.8881485449253 1268.9020029228668
s 7.235845244165762 -8.494253112716331 15.730098356882092 -8.494253112716331
S 1669.3483452586895 1239.3294180119285 1669.3483452586895 1268.9020029228668
z" fill="none" stroke="none"></path>
<circle cx="0" cy="0" r="6.041252258751431" fill="#7b7b7b" opacity="0.9">
  <animateMotion begin="-9.24559845479627s" dur="11.19s" repeatCount="indefinite">
    <mpath xlink:href="#path18"></mpath>
  </animateMotion>
</circle><path id="path19" d="M 2902.520575553534 569.2129851835683
c 0 29.89805121171856 -7.315480615633264 8.587738114004267 -15.903218729637532 8.587738114004267
S 2870.714138094259 599.1110363952869 2870.714138094259 569.2129851835683
s 7.315480615633264 -8.587738114004267 15.903218729637532 -8.587738114004267
S 2902.520575553534 539.3149339718498 2902.520575553534 569.2129851835683
z" fill="none" stroke="none"></path>
<circle cx="0" cy="0" r="7.577022670310031" fill="#000000" opacity="0.9">
  <animateMotion begin="-3.143184022445135s" dur="11.19s" repeatCount="indefinite">
    <mpath xlink:href="#path19"></mpath>
  </animateMotion>
</circle><path id="path20" d="M 656.1621625839334 425.35862399661244
c 0 36.82503588786311 -9.01038112149842 10.577403925237277 -19.587785046735696 10.577403925237277
S 616.986592490462 462.18365988447556 616.986592490462 425.35862399661244
s 9.01038112149842 -10.577403925237277 19.587785046735696 -10.577403925237277
S 656.1621625839334 388.5335881087493 656.1621625839334 425.35862399661244
z" fill="none" stroke="none"></path>
<circle cx="0" cy="0" r="4.594744950256264" fill="#7b7b7b" opacity="0.9">
  <animateMotion begin="-6.513225305643567s" dur="11.19s" repeatCount="indefinite">
    <mpath xlink:href="#path20"></mpath>
  </animateMotion>
</circle><path id="path21" d="M 2812.6486898266503 1321.2035235830308
c 0 21.38811580553244 -5.233262377949426 6.143394965418893 -11.376657343368318 6.143394965418893
S 2789.895375139914 1342.5916393885632 2789.895375139914 1321.2035235830308
s 5.233262377949426 -6.143394965418893 11.376657343368318 -6.143394965418893
S 2812.6486898266503 1299.8154077774984 2812.6486898266503 1321.2035235830308
z" fill="none" stroke="none"></path>
<circle cx="0" cy="0" r="8.158558018973341" fill="#bbbbbb" opacity="0.9">
  <animateMotion begin="-5.587542588417312s" dur="11.19s" repeatCount="indefinite">
    <mpath xlink:href="#path21"></mpath>
  </animateMotion>
</circle><path id="path22" d="M 2748.5497002948064 1333.3543457544338
c 0 32.000177406657144 -7.829830642054406 9.191540318933434 -17.02137096098784 9.191540318933434
S 2714.5069583728305 1365.354523161091 2714.5069583728305 1333.3543457544338
s 7.829830642054406 -9.191540318933434 17.02137096098784 -9.191540318933434
S 2748.5497002948064 1301.3541683477765 2748.5497002948064 1333.3543457544338
z" fill="none" stroke="none"></path>
<circle cx="0" cy="0" r="8.664987910950488" fill="#bbbbbb" opacity="0.9">
  <animateMotion begin="-7.355235953367661s" dur="11.19s" repeatCount="indefinite">
    <mpath xlink:href="#path22"></mpath>
  </animateMotion>
</circle><path id="path23" d="M 1315.1998906081394 1746.6675995983626
c 0 23.99898554969231 -5.872092208967267 6.893325636613748 -12.765417845581016 6.893325636613748
S 1289.6690549169775 1770.666585148055 1289.6690549169775 1746.6675995983626
s 5.872092208967267 -6.893325636613748 12.765417845581016 -6.893325636613748
S 1315.1998906081394 1722.6686140486702 1315.1998906081394 1746.6675995983626
z" fill="none" stroke="none"></path>
<circle cx="0" cy="0" r="4.598337039137238" fill="#000000" opacity="0.9">
  <animateMotion begin="-4.774726907487187s" dur="11.19s" repeatCount="indefinite">
    <mpath xlink:href="#path23"></mpath>
  </animateMotion>
</circle><path id="path24" d="M 1290.0062387524104 423.7275006354773
c 0 27.488338024687298 -6.725869942210721 7.895586453899543 -14.621456396110265 7.895586453899543
S 1260.7633259601898 451.21583866016465 1260.7633259601898 423.7275006354773
s 6.725869942210721 -7.895586453899543 14.621456396110265 -7.895586453899543
S 1290.0062387524104 396.23916261079 1290.0062387524104 423.7275006354773
z" fill="none" stroke="none"></path>
<circle cx="0" cy="0" r="4.8756465237520015" fill="#000000" opacity="0.9">
  <animateMotion begin="-10.385182540227387s" dur="11.19s" repeatCount="indefinite">
    <mpath xlink:href="#path24"></mpath>
  </animateMotion>
</circle><path id="path25" d="M 1188.8170135161718 1188.107164414731
c 0 21.762806751309434 -5.3249420774480525 6.251018960482496 -11.575961037930549 6.251018960482496
S 1165.6650914403108 1209.8699711660404 1165.6650914403108 1188.107164414731
s 5.3249420774480525 -6.251018960482496 11.575961037930549 -6.251018960482496
S 1188.8170135161718 1166.3443576634215 1188.8170135161718 1188.107164414731
z" fill="none" stroke="none"></path>
<circle cx="0" cy="0" r="6.720705008946944" fill="#000000" opacity="0.9">
  <animateMotion begin="-10.685202897625945s" dur="11.19s" repeatCount="indefinite">
    <mpath xlink:href="#path25"></mpath>
  </animateMotion>
</circle><path id="path26" d="M 1620.889224691608 1296.1146854561023
c 0 33.109596520727344 -8.101284255071583 9.5102032559536 -17.61148751102518 9.5102032559536
S 1585.6662496695576 1329.2242819768296 1585.6662496695576 1296.1146854561023
s 8.101284255071583 -9.5102032559536 17.61148751102518 -9.5102032559536
S 1620.889224691608 1263.005088935375 1620.889224691608 1296.1146854561023
z" fill="none" stroke="none"></path>
<circle cx="0" cy="0" r="8.473932984829705" fill="#000000" opacity="0.9">
  <animateMotion begin="-3.6965410383552193s" dur="11.19s" repeatCount="indefinite">
    <mpath xlink:href="#path26"></mpath>
  </animateMotion>
</circle><path id="path27" d="M 2012.8956084926706 1273.6502882424854
c 0 21.585318863395702 -5.281514189979799 6.200038396932808 -11.481552586912606 6.200038396932808
S 1989.9325033188454 1295.2356071058812 1989.9325033188454 1273.6502882424854
s 5.281514189979799 -6.200038396932808 11.481552586912606 -6.200038396932808
S 2012.8956084926706 1252.0649693790897 2012.8956084926706 1273.6502882424854
z" fill="none" stroke="none"></path>
<circle cx="0" cy="0" r="8.635208507090326" fill="#bbbbbb" opacity="0.9">
  <animateMotion begin="-6.2846278852003s" dur="11.19s" repeatCount="indefinite">
    <mpath xlink:href="#path27"></mpath>
  </animateMotion>
</circle><path id="path28" d="M 2965.7638408783478 63.99086010872056
c 0 27.8497496298745 -6.8143004413522705 7.999396170283101 -14.813696611635372 7.999396170283101
S 2936.136447655077 91.84060973859506 2936.136447655077 63.99086010872056
s 6.8143004413522705 -7.999396170283101 14.813696611635372 -7.999396170283101
S 2965.7638408783478 36.14111047884606 2965.7638408783478 63.99086010872056
z" fill="none" stroke="none"></path>
<circle cx="0" cy="0" r="6.807395288463042" fill="#aeaeae" opacity="0.9">
  <animateMotion begin="-0.9737585868870665s" dur="11.19s" repeatCount="indefinite">
    <mpath xlink:href="#path28"></mpath>
  </animateMotion>
</circle><path id="path29" d="M 2671.012658087271 1809.919259500917
c 0 27.275124518124592 -6.673700679966655 7.834344276482596 -14.50804495644925 7.834344276482596
S 2641.9965681743724 1837.1943840190415 2641.9965681743724 1809.919259500917
s 6.673700679966655 -7.834344276482596 14.50804495644925 -7.834344276482596
S 2671.012658087271 1782.6441349827924 2671.012658087271 1809.919259500917
z" fill="none" stroke="none"></path>
<circle cx="0" cy="0" r="5.545555518311948" fill="#000000" opacity="0.9">
  <animateMotion begin="-8.46873272356187s" dur="11.19s" repeatCount="indefinite">
    <mpath xlink:href="#path29"></mpath>
  </animateMotion>
</circle><path id="path30" d="M 1929.2384458418792 762.3026203703182
c 0 32.602591265718736 -7.9772297777822425 9.364574086961765 -17.34180386474401 9.364574086961765
S 1894.5548381123913 794.9052116360369 1894.5548381123913 762.3026203703182
s 7.9772297777822425 -9.364574086961765 17.34180386474401 -9.364574086961765
S 1929.2384458418792 729.7000291045995 1929.2384458418792 762.3026203703182
z" fill="none" stroke="none"></path>
<circle cx="0" cy="0" r="8.31049333302792" fill="#7b7b7b" opacity="0.9">
  <animateMotion begin="-4.556749945872282s" dur="11.19s" repeatCount="indefinite">
    <mpath xlink:href="#path30"></mpath>
  </animateMotion>
</circle><path id="path31" d="M 2452.4719734272317 1616.8512695239015
c 0 36.02877879832516 -8.815552259164667 10.348691782497655 -19.16424404166232 10.348691782497655
S 2414.1434853439073 1652.8800483222267 2414.1434853439073 1616.8512695239015
s 8.815552259164667 -10.348691782497655 19.16424404166232 -10.348691782497655
S 2452.4719734272317 1580.8224907255762 2452.4719734272317 1616.8512695239015
z" fill="none" stroke="none"></path>
<circle cx="0" cy="0" r="4.534100538309344" fill="#aeaeae" opacity="0.9">
  <animateMotion begin="-10.280396995607758s" dur="11.19s" repeatCount="indefinite">
    <mpath xlink:href="#path31"></mpath>
  </animateMotion>
</circle><path id="path32" d="M 980.2050285282074 1671.057992532442
c 0 33.5204520522081 -8.201812736178576 9.628214951166157 -17.830027687344735 9.628214951166157
S 944.5449731535181 1704.5784445846502 944.5449731535181 1671.057992532442
s 8.201812736178576 -9.628214951166157 17.830027687344735 -9.628214951166157
S 980.2050285282074 1637.537540480234 980.2050285282074 1671.057992532442
z" fill="none" stroke="none"></path>
<circle cx="0" cy="0" r="5.911844424110315" fill="#bbbbbb" opacity="0.9">
  <animateMotion begin="-8.121244648934779s" dur="11.19s" repeatCount="indefinite">
    <mpath xlink:href="#path32"></mpath>
  </animateMotion>
</circle><path id="path33" d="M 1110.8815464906284 1378.2078549813436
c 0 20.083326829205504 -4.914005500763048 5.768615153069667 -10.682620653832714 5.768615153069667
S 1089.5163051829627 1398.2911818105492 1089.5163051829627 1378.2078549813436
s 4.914005500763048 -5.768615153069667 10.682620653832714 -5.768615153069667
S 1110.8815464906284 1358.124528152138 1110.8815464906284 1378.2078549813436
z" fill="none" stroke="none"></path>
<circle cx="0" cy="0" r="8.348209961656256" fill="#000000" opacity="0.9">
  <animateMotion begin="-8.719391222869762s" dur="11.19s" repeatCount="indefinite">
    <mpath xlink:href="#path33"></mpath>
  </animateMotion>
</circle><path id="path34" d="M 1821.6546563418137 855.4919664452302
c 0 34.15774327238671 -8.357745694307384 9.811266684621714 -18.1690123789291 9.811266684621714
S 1785.3166315839553 889.6497097176169 1785.3166315839553 855.4919664452302
s 8.357745694307384 -9.811266684621714 18.1690123789291 -9.811266684621714
S 1821.6546563418137 821.3342231728435 1821.6546563418137 855.4919664452302
z" fill="none" stroke="none"></path>
<circle cx="0" cy="0" r="8.497263490134369" fill="#7b7b7b" opacity="0.9">
  <animateMotion begin="-9.692395799262723s" dur="11.19s" repeatCount="indefinite">
    <mpath xlink:href="#path34"></mpath>
  </animateMotion>
</circle><path id="path35" d="M 401.69196894317605 1595.4250760492112
c 0 28.348313073333355 -6.936289369007096 8.142600563617028 -15.078889932624124 8.142600563617028
S 371.5341890779278 1623.7733891225446 371.5341890779278 1595.4250760492112
s 6.936289369007096 -8.142600563617028 15.078889932624124 -8.142600563617028
S 401.69196894317605 1567.0767629758777 401.69196894317605 1595.4250760492112
z" fill="none" stroke="none"></path>
<circle cx="0" cy="0" r="7.709790594526304" fill="#aeaeae" opacity="0.9">
  <animateMotion begin="-9.983737372788491s" dur="11.19s" repeatCount="indefinite">
    <mpath xlink:href="#path35"></mpath>
  </animateMotion>
</circle></g>
</svg>